<svg width="223" height="39" viewBox="0 0 223 39" fill="none" xmlns="http://www.w3.org/2000/svg">
<g clip-path="url(#clip0_6_920)">
<g clip-path="url(#clip1_6_920)">
<path d="M20.9947 0.999023H16.8958V14.4964L7.35168 4.95231L4.45329 7.8507L13.9974 17.3948H0.5V21.4937H13.9974L4.45329 31.0378L7.35168 33.9362L16.8958 24.3921V37.8895H20.9947V24.3921L30.5388 33.9362L33.4372 31.0378L23.8931 21.4937H37.3905V17.3948H23.8931L33.4372 7.8507L30.5388 4.95231L20.9947 14.4964V0.999023Z" fill="white"/>
<path d="M58.7605 32.5054C55.369 32.5054 52.6991 31.7477 50.823 30.1963C48.9468 28.681 47.9727 26.4079 47.9727 23.4494H51.8332C51.9053 27.3099 54.2144 29.2222 58.8326 29.2222C60.7088 29.2222 62.188 28.8614 63.1983 28.1398C64.2085 27.4182 64.7497 26.3358 64.7497 24.9287C64.7497 23.8102 64.3167 22.9443 63.4869 22.3309C62.621 21.7176 61.1057 21.1764 58.9409 20.6713L56.74 20.2022C54.0701 19.6971 52.0857 18.8312 50.7508 17.6045C49.3798 16.4139 48.7303 14.7542 48.7303 12.6255C48.7303 10.5329 49.5241 8.83712 51.1837 7.57433C52.8073 6.31154 55.0082 5.66211 57.8224 5.66211C61.1778 5.66211 63.7034 6.3837 65.3991 7.82689C67.0949 9.27007 67.9608 11.2545 68.033 13.7801H64.2085C64.0642 12.1204 63.523 10.9298 62.5488 10.136C61.5747 9.34223 60.0233 8.94536 57.8585 8.94536C56.1627 8.94536 54.8639 9.27007 53.998 9.88343C53.096 10.5329 52.663 11.3988 52.663 12.5533C52.663 13.744 53.0599 14.646 53.8536 15.2232C54.6474 15.8727 56.0906 16.4499 58.2554 16.8829L60.4923 17.3519C63.4148 18.0014 65.5074 18.9034 66.8062 20.0579C68.1051 21.2485 68.7545 22.8361 68.7545 24.8204C68.7545 27.2017 67.8526 29.0778 66.0847 30.4489C64.3167 31.8199 61.8633 32.5054 58.7605 32.5054Z" fill="white"/>
<path d="M82.3912 23.8102V13.311H85.9991V31.9281H82.5355V29.15C81.0923 31.3148 79.144 32.3611 76.6906 32.3611C74.634 32.3611 73.0465 31.7838 71.892 30.6293C70.7374 29.4747 70.1602 27.8872 70.1602 25.7946V13.311H73.7681V25.2895C73.7681 27.8872 75.067 29.1861 77.7008 29.1861C78.9997 29.1861 80.1181 28.717 81.0201 27.779C81.9221 26.8409 82.3912 25.5059 82.3912 23.8102Z" fill="white"/>
<path d="M98.2934 12.8779C100.891 12.8779 102.948 13.7799 104.499 15.5117C106.014 17.2796 106.808 19.6608 106.808 22.6194C106.808 25.5779 106.014 27.9592 104.499 29.691C102.912 31.495 100.855 32.3609 98.2934 32.3609C95.6235 32.3609 93.603 31.3507 92.232 29.3302V38.9995H88.624V13.3108H92.0877V16.125C93.4587 13.9603 95.5513 12.8779 98.2934 12.8779ZM93.6391 27.4901C94.5772 28.6808 95.9121 29.258 97.6079 29.258C99.2675 29.258 100.602 28.6808 101.613 27.454C102.551 26.2995 103.056 24.6398 103.056 22.4751C103.056 20.4185 102.551 18.831 101.613 17.6765C100.639 16.558 99.3036 15.9807 97.6079 15.9807C95.9482 15.9807 94.6132 16.558 93.6391 17.7125C92.6289 18.9392 92.1598 20.5628 92.1598 22.6194C92.1598 24.712 92.6289 26.3356 93.6391 27.4901Z" fill="white"/>
<path d="M124.27 29.1498H125.28V31.9279C124.739 32.0001 124.162 32.0362 123.513 32.0362C122.358 32.0362 121.492 31.8558 120.915 31.4228C120.337 30.9899 120.013 30.3404 119.905 29.4024C118.642 31.3867 116.621 32.3609 113.843 32.3609C111.787 32.3609 110.163 31.8918 108.972 30.9177C107.782 29.9435 107.204 28.5725 107.204 26.8407C107.204 23.4853 109.514 21.5731 114.204 21.0679L116.946 20.7793C117.884 20.6711 118.606 20.4185 119.039 20.0577C119.472 19.6969 119.724 19.1557 119.724 18.4341C119.724 17.4961 119.399 16.8466 118.822 16.4137C118.245 15.9807 117.271 15.7642 115.9 15.7642C114.384 15.7642 113.338 16.0168 112.689 16.5219C112.039 17.027 111.642 17.8929 111.57 19.1196H107.998C108.251 14.9705 110.885 12.8779 115.9 12.8779C120.807 12.8779 123.26 14.7179 123.26 18.362V28.2117C123.26 28.8612 123.585 29.1498 124.27 29.1498ZM114.384 29.5467C115.9 29.5467 117.199 29.1137 118.209 28.2478C119.219 27.3819 119.724 26.1552 119.724 24.5677V22.6194C119.255 23.0163 118.497 23.2688 117.415 23.377L114.817 23.6657C113.41 23.8461 112.4 24.1708 111.823 24.6759C111.209 25.181 110.921 25.8665 110.921 26.7325C110.921 27.6344 111.209 28.32 111.787 28.8251C112.364 29.3302 113.23 29.5467 114.384 29.5467Z" fill="white"/>
<path d="M141.849 32.5054C138.458 32.5054 135.788 31.7477 133.912 30.1963C132.036 28.681 131.062 26.4079 131.062 23.4494H134.922C134.994 27.3099 137.303 29.2222 141.922 29.2222C143.798 29.2222 145.277 28.8614 146.287 28.1398C147.297 27.4182 147.839 26.3358 147.839 24.9287C147.839 23.8102 147.406 22.9443 146.576 22.3309C145.71 21.7176 144.195 21.1764 142.03 20.6713L139.829 20.2022C137.159 19.6971 135.175 18.8312 133.84 17.6045C132.469 16.4139 131.819 14.7542 131.819 12.6255C131.819 10.5329 132.613 8.83712 134.273 7.57433C135.896 6.31154 138.097 5.66211 140.911 5.66211C144.267 5.66211 146.792 6.3837 148.488 7.82689C150.184 9.27007 151.05 11.2545 151.122 13.7801H147.297C147.153 12.1204 146.612 10.9298 145.638 10.136C144.664 9.34223 143.112 8.94536 140.947 8.94536C139.252 8.94536 137.953 9.27007 137.087 9.88343C136.185 10.5329 135.752 11.3988 135.752 12.5533C135.752 13.744 136.149 14.646 136.943 15.2232C137.736 15.8727 139.18 16.4499 141.344 16.8829L143.581 17.3519C146.504 18.0014 148.596 18.9034 149.895 20.0579C151.194 21.2485 151.843 22.8361 151.843 24.8204C151.843 27.2017 150.941 29.0778 149.174 30.4489C147.406 31.8199 144.952 32.5054 141.849 32.5054Z" fill="white"/>
<path d="M161.736 13.311V16.2696H157.984V27.4542C157.984 28.0315 158.128 28.4284 158.453 28.681C158.778 28.9335 159.319 29.0418 160.113 29.0418H161.736V31.9281C160.942 32.0003 160.185 32.0364 159.535 32.0364C157.767 32.0364 156.468 31.7117 155.639 31.0261C154.773 30.3767 154.376 29.2943 154.376 27.779V16.2696H151.381V13.311H154.376V7.97119H157.984V13.311H161.736Z" fill="white"/>
<path d="M179.647 22.7637V23.81H165.612C165.756 25.6501 166.298 27.0211 167.236 27.9592C168.138 28.8972 169.364 29.3302 170.952 29.3302C173.297 29.3302 174.849 28.32 175.57 26.2273H179.214C178.709 28.1396 177.699 29.6549 176.256 30.7373C174.812 31.8197 173.008 32.3609 170.88 32.3609C168.21 32.3609 166.045 31.495 164.421 29.691C162.762 27.9231 161.968 25.5779 161.968 22.6194C161.968 19.6969 162.762 17.3517 164.421 15.5478C166.045 13.7799 168.174 12.8779 170.808 12.8779C173.55 12.8779 175.714 13.8159 177.302 15.656C178.853 17.5321 179.647 19.8773 179.647 22.7637ZM170.808 15.9086C169.364 15.9086 168.21 16.3415 167.308 17.2074C166.406 18.0733 165.865 19.3361 165.648 20.9597H175.931C175.751 19.4444 175.209 18.2537 174.307 17.3157C173.405 16.3776 172.251 15.9086 170.808 15.9086Z" fill="white"/>
<path d="M185.012 31.928H181.404V6.23926H185.012V31.928Z" fill="white"/>
<path d="M191.214 31.928H187.606V6.23926H191.214V31.928Z" fill="white"/>
<path d="M209.828 29.1498H210.839V31.9279C210.297 32.0001 209.72 32.0362 209.071 32.0362C207.916 32.0362 207.05 31.8558 206.473 31.4228C205.896 30.9899 205.571 30.3404 205.463 29.4024C204.2 31.3867 202.179 32.3609 199.401 32.3609C197.345 32.3609 195.721 31.8918 194.531 30.9177C193.34 29.9435 192.763 28.5725 192.763 26.8407C192.763 23.4853 195.072 21.5731 199.762 21.0679L202.504 20.7793C203.442 20.6711 204.164 20.4185 204.597 20.0577C205.03 19.6969 205.282 19.1557 205.282 18.4341C205.282 17.4961 204.958 16.8466 204.38 16.4137C203.803 15.9807 202.829 15.7642 201.458 15.7642C199.942 15.7642 198.896 16.0168 198.247 16.5219C197.597 17.027 197.2 17.8929 197.128 19.1196H193.556C193.809 14.9705 196.443 12.8779 201.458 12.8779C206.365 12.8779 208.818 14.7179 208.818 18.362V28.2117C208.818 28.8612 209.143 29.1498 209.828 29.1498ZM199.942 29.5467C201.458 29.5467 202.757 29.1137 203.767 28.2478C204.777 27.3819 205.282 26.1552 205.282 24.5677V22.6194C204.813 23.0163 204.056 23.2688 202.973 23.377L200.375 23.6657C198.968 23.8461 197.958 24.1708 197.381 24.6759C196.767 25.181 196.479 25.8665 196.479 26.7325C196.479 27.6344 196.767 28.32 197.345 28.8251C197.922 29.3302 198.788 29.5467 199.942 29.5467Z" fill="white"/>
<path d="M221.052 13.022C221.557 13.022 221.918 13.0581 222.099 13.0581V16.4856H221.197C219.32 16.4856 217.913 16.9547 216.903 17.8567C215.893 18.7947 215.388 20.0936 215.388 21.8254V31.9277H211.78V13.3106H215.243V16.6299C216.398 14.2487 218.346 13.022 221.052 13.022Z" fill="white"/>
</g>
</g>
<defs>
<clipPath id="clip0_6_920">
<rect width="223" height="39" fill="white"/>
</clipPath>
<clipPath id="clip1_6_920">
<rect width="223" height="39" fill="white"/>
</clipPath>
</defs>
</svg>
