<svg width="24" height="26" viewBox="0 0 24 26" fill="none" xmlns="http://www.w3.org/2000/svg">
<path d="M12.8995 12.9962L19.6531 6.23595C19.7723 6.11621 19.8391 5.95414 19.839 5.78523C19.8389 5.61631 19.7719 5.45433 19.6525 5.33475C19.4137 5.09715 18.9931 5.09595 18.7519 5.33595L12.0001 12.0961L5.24595 5.33415C5.00595 5.09715 4.58535 5.09835 4.34655 5.33535C4.28727 5.39439 4.24035 5.46464 4.20852 5.542C4.17669 5.61937 4.16058 5.70229 4.16115 5.78595C4.16115 5.95635 4.22715 6.11595 4.34655 6.23415L11.1001 12.9956L4.34715 19.7576C4.22798 19.8775 4.16124 20.0398 4.16158 20.2088C4.16192 20.3779 4.2293 20.5399 4.34895 20.6594C4.46475 20.7739 4.62855 20.84 4.79775 20.84H4.80135C4.97115 20.8394 5.13495 20.7728 5.24835 20.657L12.0001 13.8968L18.7543 20.6588C18.8737 20.7776 19.0333 20.8436 19.2025 20.8436C19.2862 20.8438 19.3691 20.8275 19.4464 20.7956C19.5238 20.7637 19.5941 20.7168 19.6532 20.6576C19.7124 20.5985 19.7593 20.5282 19.7912 20.4508C19.8231 20.3735 19.8394 20.2906 19.8391 20.207C19.8391 20.0372 19.7731 19.877 19.6531 19.7587L12.8995 12.9962Z" fill="#9B9AA0"/>
</svg>
